Patient4_TMGait_0pt8_01_right_30_EMG.mot
version=1
nRows=13
nColumns=33
inDegrees=no
endheader
time	1LAddLong	2LGlutMax	3LGlutMed	4LIliopsoas	5LSemiMemb	6LBicFemLong	7LRecFem	8LVastMed	9LVastLat	10LGasMed	11LTibAnt	12lTibPost	13LPeroneusLong	14LSol	15LExtDigLong	16LFlexDigLong	17RAddLong	18RGlutMax	19RGlutMed	20RIliopsoas	21RSemiMemb	22RBicFemLong	23RRecFem	24RVastMed	25RVastLat	26RGasMed	27RTibAnt	28RTibPost	29RPeroneusLong	30RSol	31RExtDigLong	32RFlexDigLong
34.325	0.010223	0.082397	0.028687	0.006714	-0.018158	-0.54016	0.032043	-0.017242	0.14908	0.041046	0.071411	-0.019836	0.079956	0.00824	-0.032959	-0.001984	-0.020294	0.13046	0.002747	-0.14389	0.3125	-0.13947	-0.53131	-0.00351	0.001373	-0.003967	0.81146	-0.006714	0.33432	0.083771	-0.00473	-0.005951
34.326	0.031281	0.068359	0.014191	0.023651	0.093384	-0.40588	0.075836	-0.016174	0.04776	0.04303	0.034332	-0.012665	0.09613	0.036621	-0.033264	-0.00351	-0.016479	0.15671	-0.12207	-0.068512	0.56152	-0.14633	-0.47714	-0.044861	-0.035553	-0.016937	0.75241	0.006714	0.2095	-0.018921	-0.004883	-0.014801
34.327	0.027161	0.11383	0.004578	0.021667	0.20432	-0.33951	0.007477	-0.02655	0.013733	0.01709	-0.030212	-0.010071	0.078278	0.073242	-0.062561	0.00824	0.023041	0.13001	-0.23834	0.10407	0.56107	-0.16815	-0.45456	-0.12497	-0.036316	-0.011292	0.77057	-0.004425	-0.15396	-0.037842	-0.004425	-0.014648
34.328	0.024567	0.13489	0.009918	0.017242	0.25269	-0.16708	0.019836	-0.030975	0.001678	0	0.003204	-0.010529	0.31448	0.022278	-0.12894	0.012817	0.018311	0.15259	-0.15686	0.18631	0.43945	-0.11475	-0.43121	-0.088654	-0.037231	-0.014496	0.6842	-0.002899	-0.74204	-0.006866	-0.003357	-0.023804
34.329	0.009155	0.15106	0.042267	0.015411	0.21774	0.33234	-0.006256	-0.020599	-0.011749	-0.009766	0.027618	-0.001984	0.19699	-0.010834	-0.12268	0.022125	0.022278	0.12375	-0.095367	0.069733	0.46478	-0.13504	-0.47318	-0.084534	-0.015106	-0.009613	-0.14008	-0.004272	-0.43884	-0.035706	-0.00824	-0.014496
34.33	-0.00473	0.13809	-0.002441	0.012054	0.10864	0.49439	0.080872	-0.01297	-0.072327	-0.002136	0.077515	-0.006866	-0.10941	-0.016479	-0.001068	0.021515	0.008087	0.14877	-0.09964	-0.053864	0.46219	-0.072784	-0.45349	-0.032959	-0.006866	-0.00946	-0.56839	-0.004883	0.50842	-0.04303	-0.010681	-0.015717
34.331	-0.028229	0.14755	-0.026855	-0.003052	0.007782	0.51224	0.14175	-0.003662	-0.15472	0.008545	0.11444	-0.002747	-0.13626	0.00824	0.074005	0.001373	0.001831	0.067291	-0.13519	-0.083008	0.46585	-0.026398	-0.45319	-0.017548	0.007019	-0.003967	-0.26093	-0.001831	0.98572	-0.086823	-0.002441	-0.02594
34.332	-0.050201	0.16113	-0.035706	-0.004578	-0.044556	0.45075	0.016327	0.005646	-0.17883	0.040436	0.087433	-0.008392	-0.23224	0.03067	0.031891	0.003204	0.006866	0.1471	-0.091705	0.030365	0.5127	-0.054626	-0.48416	-0.013733	0.002594	-0.000305	0.09201	-0.005951	0.015869	-0.079956	-0.003052	-0.016479
34.333	-0.046692	0.093384	-0.12131	-0.000763	-0.077667	0.41565	-0.084686	0.025635	-0.16174	0.041504	-0.011292	0.002899	0.31372	0.06134	0.019989	0.020294	0.059357	0.075226	-0.028381	0.18936	0.43762	-0.2803	-0.41107	-0.076599	0.008392	0.005646	0.27191	-0.002899	0.18387	0.001984	-0.001984	-0.016174
34.334	-0.055542	0.005035	-0.21668	-0.005341	-0.051422	0.31555	-0.17548	-0.028381	-0.15915	0.056458	-0.014191	-0.003357	0.34592	0.12756	0.075226	-0.008087	0.071716	0.074921	-0.082703	0.1709	0.35828	-0.29419	-0.41153	-0.088654	0.019073	0.002289	0.23666	-0.005035	0.76279	0.052948	-0.002289	-0.00885
34.335	-0.052185	-0.080872	-0.24414	0.003662	-0.024414	0.11353	-0.18677	0.000916	-0.12833	0.033722	0.033112	0.002594	0.033875	0.20599	0.41031	0.006256	0.061646	0.066528	-0.052948	0.050201	0.33035	-0.22583	-0.39658	-0.069122	0.02533	-0.00473	0.09613	-0.003815	-0.31815	0.11505	0.002899	-0.013275
34.336	-0.034332	-0.13504	-0.049286	0.021515	-0.032806	-0.21637	0	-0.009613	-0.059509	-0.014954	-0.058289	0.011444	-0.11566	0.27466	0.87387	0.003204	0.034637	0.06897	-0.018158	-0.044403	0.29831	-0.10407	-0.41412	-0.054779	0.04303	-0.001984	0.14572	-0.007629	-1.3037	-0.000458	-0.005188	-0.009766
34.337	-0.005188	-0.063171	0.028229	0.036163	-0.010376	-0.16449	0.035858	-0.010223	-0.086975	0.00824	-0.020905	0.002441	-0.11551	0.17838	0.14343	0.002594	0.0354	0.1265	-0.048218	-0.046387	0.26093	-0.00061	-0.37842	-0.055084	0.043945	-0.001678	-0.005951	-0.003204	-0.41138	-0.006561	-0.00473	0.006256
